# xmcd CD database file
#
# Track frame offsets:
#	150
#	16945
#	33469
#	53027
#	68581
#	88277
#	104726
#	124154
#	146814
#	164922
#	180767
#	205100
#	226373
#	240824
#
# Disc length: 3524 seconds
#
# Revision: 0
# Processed by: cddbd v1.5.2PL0 Copyright (c) Steve Scherf et al.
# Submitted via: CDex 1.51
#
DISCID=bc0dc20e
DTITLE=Chubby Rae 7 the Elevators - Live at St. Andrews
DYEAR=2002
DGENRE=Blues
TTITLE0=Walkin To My Baby
TTITLE1=Little Red Rooster
TTITLE2=You Gotta Move
TTITLE3=Love Me Like A Man
TTITLE4=Full-Time Lover
TTITLE5=Little By Little
TTITLE6=It Hurts
TTITLE7=Jelly Roll
TTITLE8=Crazy Hot Rod
TTITLE9=Honey Hush
TTITLE10=Reasons To Love
TTITLE11=Who's Been Talkin'
TTITLE12=If I Could Make A Man
TTITLE13=Till The money Runs Out
EXTD=YEAR: 2002
EXTT0=
EXTT1=
EXTT2=
EXTT3=
EXTT4=
EXTT5=
EXTT6=
EXTT7=
EXTT8=
EXTT9=
EXTT10=
EXTT11=
EXTT12=
EXTT13=
PLAYORDER=
